<svg xmlns="http://www.w3.org/2000/svg" xmlns:xlink="http://www.w3.org/1999/xlink" version="1.1" x="0px" y="0px" viewBox="14.972087860107422 9.675310134887695 70.05641174316406 85.32469177246094" enable-background="new 0 0 100 100" xml:space="preserve"><g><g><path d="M47.112,94.173c85.841-17.101-79.84-16.297-17.931-26.588c-2.513,0.724-7.257,1.901-6.111,4.027    c3.471,6.439,69.387,1.923,61.266,16.717C81.392,93.691,70.171,96.508,47.112,94.173z" fill="#28263B"></path><g><g><path d="M46.81,52.052c-2.961-1.709-6.748-0.695-8.457,2.266c-1.584,2.743-4.273,4.448-7.18,4.879      c0.8,2.018,2.259,3.792,4.284,4.962c4.768,2.753,10.866,1.119,13.619-3.649C50.785,57.548,49.771,53.761,46.81,52.052z       M67.273,10.875l-21.59,29.337c-2.452,3.332-1.463,8.055,2.119,10.123s8.167,0.563,9.827-3.226l14.612-33.366      C73.622,10.589,69.314,8.102,67.273,10.875z" fill="#28263B"></path></g></g></g></g></svg>